<svg width="45" height="45" viewBox="0 0 45 45" fill="none" xmlns="http://www.w3.org/2000/svg">
<g clip-path="url(#clip0_3_331)">
<path d="M41.25 9.37503H31.875V7.49997C31.875 5.43181 30.1932 3.74994 28.125 3.74994H16.875C14.8068 3.74994 13.125 5.43173 13.125 7.49997V9.37494H3.75003C1.68179 9.37503 0 11.0568 0 13.125V18.75C0 20.8182 1.68179 22.5 3.75003 22.5H18.7501V21.5625C18.7501 21.0443 19.1694 20.6249 19.6876 20.6249H25.3126C25.8308 20.6249 26.2501 21.0443 26.2501 21.5625V22.5H41.2501C43.3182 22.5 45 20.8182 45 18.75V13.125C45 11.0568 43.3182 9.37503 41.25 9.37503ZM28.125 9.37503H16.875V7.49997H28.125V9.37503Z" fill="black"/>
<path d="M44.4799 23.5116C44.1605 23.3532 43.7787 23.3899 43.4966 23.6041C42.8302 24.1086 42.0537 24.375 41.2499 24.375H26.25V27.1875C26.25 27.7057 25.8307 28.125 25.3125 28.125H19.6875C19.1693 28.125 18.75 27.7057 18.75 27.1875V24.375H3.75003C2.94618 24.375 2.16984 24.1086 1.50328 23.6041C1.22036 23.388 0.839531 23.3514 0.519961 23.5116C0.201445 23.6701 0 23.995 0 24.3512V37.5C0 39.5682 1.68179 41.2501 3.75003 41.2501H41.2501C43.3182 41.2501 45.0001 39.5683 45.0001 37.5V24.3512C45 23.995 44.7986 23.6701 44.4799 23.5116Z" fill="black"/>
</g>
<defs>
<clipPath id="clip0_3_331">
<rect width="45" height="45" fill="white"/>
</clipPath>
</defs>
</svg>
