<svg width="46" height="46" viewBox="0 0 46 46" fill="none" xmlns="http://www.w3.org/2000/svg">
<g clip-path="url(#clip0_3_109)">
<path d="M44.8742 16.6068C44.7668 16.2941 44.3861 16.0509 44.0682 16.0509C42.6918 16.0509 41.3156 16.0509 39.9392 16.0509C39.6214 16.0509 39.2406 16.2941 39.1331 16.6068C39.028 16.9129 38.9494 17.186 38.8972 17.4428L36.1391 9.81232C35.6842 8.55407 34.4794 7.7087 33.1416 7.7087H12.0466C10.7087 7.7087 9.50411 8.55407 9.04896 9.81255L6.29074 17.4437C6.23841 17.1867 6.15986 16.9132 6.05463 16.6068C5.94723 16.2941 5.5664 16.0509 5.24866 16.0509C3.87235 16.0509 2.49604 16.0509 1.11962 16.0509C0.801876 16.0509 0.421044 16.2941 0.313642 16.6068C-0.104518 17.8243 -0.104289 18.5213 0.313756 19.7389C0.421158 20.0516 0.801991 20.2948 1.11973 20.2948C2.49616 20.2948 3.87246 20.2948 5.24877 20.2948C5.25266 20.2948 5.25679 20.2938 5.26079 20.2937L5.19851 20.4662C4.35658 20.746 3.74869 21.5385 3.74869 22.4745V28.8642V29.3908V36.4615C3.74869 37.0236 4.20417 37.4791 4.76626 37.4791H9.88757C10.4495 37.4791 10.9051 37.0236 10.9051 36.4615V31.508H34.2829V36.4615C34.2829 37.0236 34.7385 37.4791 35.3005 37.4791H40.4218C40.9839 37.4791 41.4394 37.0236 41.4394 36.4615V29.3908V28.8642V22.4745C41.4394 21.5388 40.8317 20.7463 39.9901 20.4663L39.9277 20.2937C39.9315 20.2938 39.9355 20.2947 39.9393 20.2947C41.3157 20.2947 42.6919 20.2947 44.0683 20.2947C44.3862 20.2947 44.7669 20.0515 44.8743 19.7388C45.2924 18.5213 45.2921 17.8243 44.8742 16.6068ZM12.4363 11.4534H32.7491L35.9675 20.3572H9.21797L12.4363 11.4534ZM13.0028 26.6297H8.7184C7.79918 26.6297 7.05412 25.8847 7.05412 24.9655C7.05412 24.0463 7.79906 23.3012 8.7184 23.3012H13.0028C13.9219 23.3012 14.6671 24.0462 14.6671 24.9655C14.6672 25.8847 13.9219 26.6297 13.0028 26.6297ZM36.4693 26.6297H32.1849C31.2658 26.6297 30.5206 25.8847 30.5206 24.9655C30.5206 24.0463 31.2658 23.3012 32.1849 23.3012H36.4693C37.3885 23.3012 38.1336 24.0462 38.1336 24.9655C38.1336 25.8847 37.3885 26.6297 36.4693 26.6297Z" fill="black"/>
</g>
<defs>
<clipPath id="clip0_3_109">
<rect width="45.1878" height="45.1878" fill="white"/>
</clipPath>
</defs>
</svg>
