<svg width="22" height="22" viewBox="0 0 22 22" fill="none" xmlns="http://www.w3.org/2000/svg">
<path d="M3.95826 10.6063C1.77568 10.6063 0 12.382 0 14.5646C0 15.668 0.603335 17.0007 1.79329 18.5258C2.64319 19.615 3.48313 20.4026 3.51849 20.4356L3.9583 20.8463L4.39812 20.4356C4.43348 20.4026 5.27341 19.615 6.12331 18.5258C7.31323 17.0007 7.91661 15.668 7.91661 14.5646C7.91656 12.382 6.14089 10.6063 3.95826 10.6063ZM3.95826 15.8452C3.25216 15.8452 2.67769 15.2707 2.67769 14.5646C2.67769 13.8585 3.25216 13.284 3.95826 13.284C4.66436 13.284 5.23883 13.8585 5.23883 14.5646C5.23883 15.2707 4.66436 15.8452 3.95826 15.8452Z" fill="#8A8A8E"/>
<path d="M18.0417 1.15374C15.8591 1.15374 14.0834 2.92941 14.0834 5.112C14.0834 6.21543 14.6868 7.54815 15.8767 9.07318C16.7265 10.1624 17.5665 10.95 17.6018 10.983L18.0416 11.3937L18.4814 10.983C18.5168 10.95 19.3568 10.1624 20.2066 9.07318C21.3966 7.54815 21.9999 6.21543 21.9999 5.112C22 2.92946 20.2243 1.15374 18.0417 1.15374ZM18.0417 6.39261C17.3356 6.39261 16.7611 5.81814 16.7611 5.11204C16.7611 4.40594 17.3356 3.83147 18.0417 3.83147C18.7478 3.83147 19.3223 4.40594 19.3223 5.11204C19.3223 5.81814 18.7478 6.39261 18.0417 6.39261Z" fill="#8A8A8E"/>
<path d="M15.6786 20.609H6.53625V19.3201H15.6786C16.6263 19.3201 17.3973 18.5491 17.3973 17.6014C17.3973 16.6538 16.6263 15.8828 15.6786 15.8828H12.0741C10.4158 15.8828 9.06654 14.5336 9.06654 12.8752C9.06654 11.2168 10.4158 9.86765 12.0741 9.86765H15.4637V11.1566H12.0741C11.1264 11.1566 10.3554 11.9275 10.3554 12.8752C10.3554 13.8229 11.1264 14.5939 12.0741 14.5939H15.6786C17.337 14.5939 18.6862 15.9431 18.6862 17.6014C18.6862 19.2598 17.337 20.609 15.6786 20.609Z" fill="#8A8A8E"/>
</svg>
