<svg width="112" height="112" viewBox="0 0 112 112" fill="none" xmlns="http://www.w3.org/2000/svg">
<g clip-path="url(#clip0_3_39)">
<path d="M56 79.625C38.1485 79.625 23.625 94.1485 23.625 112H32.375C32.375 107.064 33.8975 102.478 36.4963 98.6836L46.6714 108.859C46.3389 109.846 46.1562 110.901 46.1562 112H65.8438C65.8438 110.901 65.6611 109.846 65.3288 108.859L75.504 98.6834C78.1025 102.478 79.625 107.064 79.625 112H88.375C88.375 94.1485 73.8515 79.625 56 79.625ZM52.8585 102.671L42.6834 92.496C46.4776 89.8975 51.0641 88.375 56 88.375C60.9359 88.375 65.5224 89.8975 69.3164 92.4962L59.1412 102.671C58.1545 102.339 57.0988 102.156 56 102.156C54.9012 102.156 53.8455 102.339 52.8585 102.671ZM95.5981 72.4019C89.4987 66.3027 82.2388 61.7875 74.3179 59.0542C82.8015 53.2112 88.375 43.4324 88.375 32.375C88.375 14.5235 73.8515 0 56 0C38.1485 0 23.625 14.5235 23.625 32.375C23.625 43.4324 29.1985 53.2112 37.6823 59.0544C29.7614 61.7875 22.5015 66.3027 16.4021 72.4021C5.82509 82.9791 0 97.0419 0 112H8.75C8.75 85.9462 29.9462 64.75 56 64.75C82.0538 64.75 103.25 85.9462 103.25 112H112C112 97.0419 106.175 82.9791 95.5981 72.4019ZM32.375 32.375C32.375 19.3482 42.973 8.75 56 8.75C69.027 8.75 79.625 19.3482 79.625 32.375C79.625 45.4018 69.027 56 56 56C42.973 56 32.375 45.4018 32.375 32.375Z" fill="white"/>
</g>
<defs>
<clipPath id="clip0_3_39">
<rect width="112" height="112" fill="white"/>
</clipPath>
</defs>
</svg>
