<svg width="28" height="30" viewBox="0 0 28 30" fill="none" xmlns="http://www.w3.org/2000/svg">
<path d="M27.6791 25.0727L24.9397 22.1448C24.5118 21.6874 23.818 21.6874 23.3901 22.1448C22.9622 22.6022 22.9622 23.3438 23.3901 23.8011L24.2589 24.7297H6.38605C6.05535 23.7332 5.31545 22.9423 4.38301 22.5888V11.3642C4.9373 11.5775 5.61875 11.7297 6.43427 11.7297C7.95632 11.7297 9.15716 11.3733 10.3185 11.0286C11.336 10.7266 12.2971 10.4414 13.4046 10.4414C15.0013 10.4414 15.9897 10.6967 15.9961 10.6984C16.4112 10.8106 16.849 10.6545 17.1178 10.2984C17.3865 9.94232 17.4367 9.45172 17.2464 9.04204L15.5297 5.34757L17.2256 2.04544C17.3888 1.72764 17.4051 1.34701 17.2698 1.01457C17.1344 0.682129 16.8627 0.435479 16.5339 0.346528C16.4843 0.333118 15.2975 0.0179549 13.4047 0.0179549C11.9921 0.0179549 10.837 0.376393 9.71988 0.722944C8.65607 1.05304 7.65126 1.36481 6.43432 1.36481C4.95522 1.36481 4.21388 0.539597 4.13368 0.444849C3.84894 0.0488739 3.37103 -0.0956492 2.92731 0.0635722C2.48101 0.22373 2.19151 0.685935 2.19151 1.18913V22.5889C0.91616 23.0723 0 24.3741 0 25.9009C0 27.8383 1.47467 29.4145 3.28726 29.4145C4.71574 29.4145 5.93373 28.4352 6.38605 27.0721H24.2588L23.39 28.0007C22.9621 28.4581 22.9621 29.1997 23.39 29.657C23.604 29.8857 23.8844 30 24.1649 30C24.4453 30 24.7257 29.8857 24.9397 29.657L27.6791 26.7291C28.107 26.2717 28.107 25.5301 27.6791 25.0727ZM4.38307 3.31827C4.96289 3.54981 5.65053 3.70716 6.43432 3.70716C7.9629 3.70716 9.16669 3.33367 10.3308 2.97242C11.3454 2.65767 12.3037 2.36031 13.4046 2.36031C13.8286 2.36031 14.2098 2.37834 14.541 2.40481L13.3331 4.75694C13.1605 5.09301 13.1527 5.49806 13.3123 5.84145L14.3744 8.12724C14.0768 8.10978 13.7526 8.09913 13.4046 8.09913C11.9986 8.09913 10.8464 8.44105 9.73216 8.77173C8.66538 9.08836 7.65778 9.38742 6.43432 9.38742C5.35747 9.38742 4.69344 8.98822 4.38307 8.73806V3.31827ZM3.28732 27.0721C2.68312 27.0721 2.19156 26.5467 2.19156 25.9009C2.19156 25.2552 2.68312 24.7298 3.28732 24.7298C3.89151 24.7298 4.38307 25.2552 4.38307 25.9009C4.38307 26.5467 3.89151 27.0721 3.28732 27.0721Z" fill="#8A8A8E"/>
</svg>
