<svg width="121" height="159" viewBox="0 0 121 159" fill="none" xmlns="http://www.w3.org/2000/svg">
<path d="M61.0163 158.272L34.8711 119.466H87.1509L61.0163 158.272ZM44.602 124.717L61.0163 149.065L77.5483 124.717H44.602Z" fill="white"/>
<path d="M90.3268 0H30.1125L0 52.1515L30.1125 104.303H90.3375L120.45 52.1515L90.3268 0ZM87.3113 99.0846H33.1173L6.02036 52.1515L33.1173 5.21836H87.3113L114.408 52.1515L87.3113 99.0846Z" fill="white"/>
<path d="M62.1497 53.4775L46.5267 80.521H77.5909L93.2032 53.4775H62.1497Z" fill="white"/>
<path d="M43.0835 24.8835L27.2038 52.3654L43.2546 80.1467L59.1235 52.6541L43.0835 24.8835Z" fill="white"/>
<path d="M77.0456 23.1403H45.6606L61.6151 50.7613H93.0108L77.0456 23.1403Z" fill="white"/>
</svg>
