<svg width="28" height="30" viewBox="0 0 28 30" fill="none" xmlns="http://www.w3.org/2000/svg">
<path d="M26.1722 5.34741L27.8649 2.0452C28.0278 1.7274 28.0441 1.34676 27.909 1.01432C27.7739 0.681879 27.5027 0.435227 27.1744 0.346276C27.125 0.332866 25.9404 0.0176994 24.051 0.0176994C22.641 0.0176994 21.488 0.376082 20.3729 0.722695C19.3111 1.05279 18.3081 1.36456 17.0934 1.36456C15.6137 1.36456 14.8679 0.536008 14.7878 0.441669C14.5027 0.0475061 14.026 -0.0956714 13.584 0.0643126C13.1396 0.225116 12.8514 0.686564 12.8514 1.18889V22.5901C11.6687 23.0409 10.797 24.1985 10.6813 25.586C10.6324 25.3981 10.5398 25.2205 10.4018 25.0728L7.66742 22.1448C7.24026 21.6874 6.5477 21.6874 6.12059 22.1448C5.69348 22.6022 5.69348 23.3438 6.12059 23.8011L6.98782 24.7297H1.09374C0.489669 24.7297 0 25.2541 0 25.9009C0 26.5478 0.489669 27.0721 1.09374 27.0721H6.98787L6.12065 28.0007C5.69354 28.4581 5.69354 29.1997 6.12065 29.657C6.3342 29.8857 6.61414 30 6.89409 30C7.17398 30 7.45392 29.8857 7.66753 29.657L10.4019 26.7291C10.5399 26.5813 10.6326 26.4038 10.6814 26.2158C10.8307 28.0061 12.2387 29.4145 13.9488 29.4145C15.7581 29.4145 17.23 27.8383 17.23 25.9009C17.23 24.3727 16.3139 23.07 15.0391 22.5876V11.3615C15.5937 11.5761 16.2761 11.7296 17.0935 11.7296C18.6128 11.7296 19.8114 11.3732 20.9706 11.0285C21.9863 10.7265 22.9457 10.4413 24.0511 10.4413C25.6448 10.4413 26.6315 10.6966 26.6379 10.6983C27.0518 10.8106 27.4892 10.6544 27.7575 10.2983C28.0258 9.94227 28.0758 9.45166 27.8859 9.04198L26.1722 5.34741ZM13.9487 27.0721C13.3456 27.0721 12.8549 26.5467 12.8549 25.9009C12.8549 25.2551 13.3456 24.7297 13.9487 24.7297C14.5518 24.7297 15.0424 25.2551 15.0424 25.9009C15.0424 26.5467 14.5518 27.0721 13.9487 27.0721ZM23.9588 5.84119L25.019 8.12699C24.7219 8.10948 24.3983 8.09888 24.051 8.09888C22.6475 8.09888 21.4974 8.44081 20.3853 8.77149C19.3204 9.08812 18.3147 9.38719 17.0935 9.38719C16.0106 9.38719 15.3458 8.9819 15.039 8.73214V3.31593C15.6198 3.54859 16.3087 3.70693 17.0935 3.70693C18.6192 3.70693 19.8208 3.33344 20.9828 2.97219C21.9956 2.65738 22.9521 2.36007 24.051 2.36007C24.4742 2.36007 24.8547 2.37811 25.1854 2.40458L23.9796 4.75679C23.8074 5.0928 23.7996 5.49785 23.9588 5.84119Z" fill="#8A8A8E"/>
</svg>
